# xmcd
#
# Track frame offsets: 
#        150
#        12173
#        30767
#        43422
#        58997
#        75882
#        88771
#        103166
#
# Disc length: 1618 seconds
#
# Revision: 1
# Processed by: cddbd v1.5.2PL0 Copyright (c) Steve Scherf et al.
# Submitted via: ExactAudioCopyFreeDBPlugin 1.0
#
DISCID=59065008
DTITLE=Noise Pollution - Ready To Rumble?
DYEAR=2003
DGENRE=Blues
TTITLE0=Bluesman
TTITLE1=Fast Airplane
TTITLE2=Man Like Me
TTITLE3=Help Me Up - Help Me Down
TTITLE4=I Belive I'm In Love
TTITLE5=Through With You
TTITLE6=Thunderbird
TTITLE7=No More Changes
EXTD=
EXTT0=
EXTT1=
EXTT2=
EXTT3=
EXTT4=
EXTT5=
EXTT6=
EXTT7=
PLAYORDER=
